<mxfile host="65bd71144e">
    <diagram id="KMkw1vf8qtbHQBLpbq38" name="Page-1">
        <mxGraphModel dx="1506" dy="446" grid="1" gridSize="10" guides="1" tooltips="1" connect="1" arrows="1" fold="1" page="1" pageScale="1" pageWidth="827" pageHeight="1169" math="0" shadow="0">
            <root>
                <mxCell id="0"/>
                <mxCell id="1" parent="0"/>
                <mxCell id="2" value="PORTS WORKER" style="rounded=1;whiteSpace=wrap;html=1;" vertex="1" parent="1">
                    <mxGeometry y="50" width="680" height="350" as="geometry"/>
                </mxCell>
                <mxCell id="18" value="&lt;b&gt;ALL PORTS&lt;/b&gt;" style="ellipse;whiteSpace=wrap;html=1;strokeWidth=2;fillWeight=2;hachureGap=8;fillColor=#dae8fc;fillStyle=dots;sketch=1;strokeColor=#6c8ebf;" vertex="1" parent="1">
                    <mxGeometry y="60" width="480" height="160" as="geometry"/>
                </mxCell>
                <mxCell id="3" value="FREE PORTS" style="ellipse;whiteSpace=wrap;html=1;strokeWidth=2;fillWeight=2;hachureGap=8;fillStyle=dots;sketch=1;fillColor=none;" vertex="1" parent="1">
                    <mxGeometry x="30" y="90" width="130" height="70" as="geometry"/>
                </mxCell>
                <mxCell id="5" value="PORTS ASSIGNED" style="ellipse;whiteSpace=wrap;html=1;strokeWidth=2;fillWeight=2;hachureGap=8;fillColor=none;fillStyle=dots;sketch=1;" vertex="1" parent="1">
                    <mxGeometry x="270" y="85" width="200" height="110" as="geometry"/>
                </mxCell>
                <mxCell id="4" value="PORTS TAKEN&lt;br&gt;BY DEFAULT" style="ellipse;whiteSpace=wrap;html=1;strokeWidth=2;fillWeight=2;hachureGap=8;fillColor=none;fillStyle=dots;sketch=1;" vertex="1" parent="1">
                    <mxGeometry x="300" y="90" width="150" height="40" as="geometry"/>
                </mxCell>
                <mxCell id="6" value="BACKEND SERVICES" style="ellipse;whiteSpace=wrap;html=1;strokeWidth=2;fillWeight=2;hachureGap=8;fillColor=#f5f5f5;fillStyle=dots;sketch=1;fontColor=#333333;strokeColor=#666666;" vertex="1" parent="1">
                    <mxGeometry x="50" y="450" width="600" height="60" as="geometry"/>
                </mxCell>
                <mxCell id="8" value="Port entity" style="swimlane;childLayout=stackLayout;horizontal=1;startSize=30;horizontalStack=0;rounded=1;fontSize=14;fontStyle=0;strokeWidth=2;resizeParent=0;resizeLast=1;shadow=0;dashed=0;align=center;" vertex="1" parent="1">
                    <mxGeometry x="470" y="130" width="180" height="120" as="geometry"/>
                </mxCell>
                <mxCell id="9" value="+UniqueId (string)&#10;+metadata (object)&#10;+assignedPort (number)&#10;+type (free,inuse)&#10;+readonly" style="align=left;strokeColor=none;fillColor=none;spacingLeft=4;fontSize=12;verticalAlign=top;resizable=0;rotatable=0;part=1;" vertex="1" parent="8">
                    <mxGeometry y="30" width="180" height="90" as="geometry"/>
                </mxCell>
                <mxCell id="11" value="PortsController" style="swimlane;fontStyle=0;childLayout=stackLayout;horizontal=1;startSize=26;horizontalStack=0;resizeParent=1;resizeParentMax=0;resizeLast=0;collapsible=1;marginBottom=0;align=center;fontSize=14;" vertex="1" parent="1">
                    <mxGeometry x="40" y="250" width="160" height="116" as="geometry"/>
                </mxCell>
                <mxCell id="12" value="assign(serviceId,readonly)" style="text;strokeColor=none;fillColor=none;spacingLeft=4;spacingRight=4;overflow=hidden;rotatable=0;points=[[0,0.5],[1,0.5]];portConstraint=eastwest;fontSize=12;" vertex="1" parent="11">
                    <mxGeometry y="26" width="160" height="30" as="geometry"/>
                </mxCell>
                <mxCell id="13" value="unassignByPort&#10;" style="text;strokeColor=none;fillColor=none;spacingLeft=4;spacingRight=4;overflow=hidden;rotatable=0;points=[[0,0.5],[1,0.5]];portConstraint=eastwest;fontSize=12;" vertex="1" parent="11">
                    <mxGeometry y="56" width="160" height="30" as="geometry"/>
                </mxCell>
                <mxCell id="14" value="unassignByServiceId" style="text;strokeColor=none;fillColor=none;spacingLeft=4;spacingRight=4;overflow=hidden;rotatable=0;points=[[0,0.5],[1,0.5]];portConstraint=eastwest;fontSize=12;" vertex="1" parent="11">
                    <mxGeometry y="86" width="160" height="30" as="geometry"/>
                </mxCell>
                <mxCell id="16" value="" style="endArrow=classic;startArrow=classic;html=1;exitX=0.45;exitY=-0.025;exitDx=0;exitDy=0;exitPerimeter=0;" edge="1" parent="1" source="6" target="2">
                    <mxGeometry width="50" height="50" relative="1" as="geometry">
                        <mxPoint x="140" y="400" as="sourcePoint"/>
                        <mxPoint x="190" y="350" as="targetPoint"/>
                    </mxGeometry>
                </mxCell>
            </root>
        </mxGraphModel>
    </diagram>
</mxfile>
